:FULLY-SPECIFIED
:FORCE-ALL-JOINTS-BE-3DOF
:DEGREES
747
root 4.14227 16.7491 14.471 -163.233 -8.62638 188.96
lfemur -32.2838 1.05909 -15.2482
ltibia 45.3117 0 0
lfoot -29.4091 6.93641 0
ltoes 5.03427 0 0
rfemur -27.8502 -32.6599 11.0486
rtibia 106.373 0 0
rfoot 14.7513 3.94068 0
rtoes 16.1342 0 0
lowerback 2.49215 6.69023 -2.21575
upperback -1.39572 8.79653 -1.37889
thorax -2.93328 4.40996 -0.636571
lowerneck -6.51208 -8.54826 -1.30876
upperneck -2.05604 -11.498 5.42908
head 0.859272 -5.76218 1.56516
lclavicle 2.01792e-14 2.45148e-15 0
lhumerus -54.6067 -5.00153 75.1636
lradius 48.0515 0 0
lwrist 15.5626 0 0
lhand -28.3851 -4.06236 0
lfingers 7.12502 0 0
lthumb -1.75778 25.9054 0
rclavicle 2.01792e-14 2.45148e-15 0
rhumerus 25.7067 39.4012 -67.3796
rradius 96.4586 0 0
rwrist -1.12724 0 0
rhand -21.0864 -20.7074 0
rfingers 7.12502 0 0
rthumb 5.29027 -770.595 0
748
root 4.09968 16.6014 14.6766 -163.145 -6.41087 188.796
lfemur -33.959 2.97156 -16.4089
ltibia 47.9371 0 0
lfoot -30.4777 7.86395 0
ltoes 5.02782 0 0
rfemur -27.9424 -32.8702 12.8646
rtibia 104.529 0 0
rfoot 14.1389 3.05601 0
rtoes 16.1606 0 0
lowerback 2.77271 6.48392 -2.6049
upperback -1.24638 8.49007 -1.54716
thorax -2.96546 4.25931 -0.607123
lowerneck -6.36859 -8.64529 -1.47695
upperneck -2.12831 -11.6276 5.83273
head 0.85535 -5.82978 1.72039
lclavicle 2.12288e-14 4.30719e-15 0
lhumerus -53.522 -4.75096 77.5321
lradius 48.3564 0 0
lwrist 14.7694 0 0
lhand -29.0526 -4.25835 0
lfingers 7.12502 0 0
lthumb -2.40248 25.7048 0
rclavicle 2.12288e-14 4.30719e-15 0
rhumerus 22.6388 42.1876 -70.4951
rradius 96.3922 0 0
rwrist -0.00960939 0 0
rhand -19.4323 -19.4015 0
rfingers 7.12502 0 0
rthumb 6.88726 -769.25 0
749
root 4.05812 16.465 14.872 -163.113 -4.26247 188.666
lfemur -35.5409 4.8525 -17.4742
ltibia 50.3877 0 0
lfoot -31.3539 8.48543 0
ltoes 5.22846 0 0
rfemur -27.9737 -33.0192 14.5552
rtibia 102.788 0 0
rfoot 13.7659 2.14344 0
rtoes 16.4583 0 0
lowerback 3.06525 6.29491 -2.94132
upperback -1.08881 8.20632 -1.71656
thorax -2.98686 4.11837 -0.607413
lowerneck -6.2371 -8.73296 -1.64385
upperneck -2.20938 -11.7449 6.21133
head 0.848906 -5.89198 1.86829
lclavicle 1.40928e-14 1.26724e-14 0
lhumerus -52.4753 -4.73464 79.7392
lradius 48.7946 0 0
lwrist 14.1511 0 0
lhand -29.6031 -4.47887 0
lfingers 7.12502 0 0
lthumb -2.93418 25.4795 0
rclavicle 1.40928e-14 1.26724e-14 0
rhumerus 19.4947 44.6987 -73.5854
rradius 96.1536 0 0
rwrist 1.09221 0 0
rhand -17.9318 -18.2443 0
rfingers 7.12502 0 0
rthumb 8.33587 -768.051 0
750
root 4.01886 16.3437 15.0506 -163.144 -2.24277 188.58
lfemur -36.9621 6.6426 -18.4013
ltibia 52.5687 0 0
lfoot -32.0197 8.77153 0
ltoes 5.65235 0 0
rfemur -27.9354 -33.0942 16.05
rtibia 101.216 0 0
rfoot 13.6582 1.2257 0
rtoes 17.0552 0 0
lowerback 3.35945 6.13388 -3.20855
upperback -0.926159 7.96056 -1.88105
thorax -2.99375 3.99454 -0.639791
lowerneck -6.12193 -8.80708 -1.79985
upperneck -2.297 -11.8445 6.54736
head 0.839379 -5.94611 2.00189
lclavicle -7.55382e-15 2.8625e-14 0
lhumerus -51.519 -4.97593 81.7024
lradius 49.374 0 0
lwrist 13.7527 0 0
lhand -29.9993 -4.72184 0
lfingers 7.12502 0 0
lthumb -3.31682 25.2321 0
rclavicle -7.55382e-15 2.8625e-14 0
rhumerus 16.3743 46.8227 -76.5508
rradius 95.7332 0 0
rwrist 2.13744 0 0
rhand -16.6745 -17.2941 0
rfingers 7.12502 0 0
rthumb 9.54937 -767.058 0
751
root 3.9637 16.264 15.2098 -163.286 0.215213 188.575
lfemur -37.9202 8.53711 -19.2256
ltibia 54.0724 0 0
lfoot -32.4156 8.844 0
ltoes 6.59119 0 0
rfemur -27.5166 -32.975 17.1644
rtibia 99.4541 0 0
rfoot 13.9917 0.0258966 0
rtoes 18.672 0 0
lowerback 3.5746 6.02126 -3.37071
upperback -0.775273 7.82491 -2.10682
thorax -2.94545 3.93923 -0.786415
lowerneck -5.99746 -8.84403 -1.87448
upperneck -2.31753 -11.8974 6.7083
head 0.830792 -5.97649 2.06921
lclavicle -2.13274e-15 -2.35622e-14 0
lhumerus -50.9845 -5.87637 83.2314
lradius 50.715 0 0
lwrist 13.6863 0 0
lhand -30.028 -5.16218 0
lfingers 7.12502 0 0
lthumb -3.34454 24.7913 0
rclavicle -2.13274e-15 -2.35622e-14 0
rhumerus 12.6595 48.1577 -79.8003
rradius 94.6787 0 0
rwrist 2.99216 0 0
rhand -16.4194 -16.9727 0
rfingers 7.12502 0 0
rthumb 9.79549 -766.725 0
752
root 3.89803 16.1854 15.3786 -163.419 3.03159 188.569
lfemur -38.8774 10.541 -20.1275
ltibia 55.5075 0 0
lfoot -32.7677 9.08388 0
ltoes 7.5911 0 0
rfemur -27.0031 -32.8417 18.2428
rtibia 97.4888 0 0
rfoot 14.2734 -1.27003 0
rtoes 20.3499 0 0
lowerback 3.74853 5.91245 -3.53555
upperback -0.645756 7.69124 -2.36659
thorax -2.89239 3.88367 -0.963002
lowerneck -5.86202 -8.87614 -1.93288
upperneck -2.29014 -11.9385 6.80901
head 0.829658 -5.99651 2.1147
lclavicle -5.37009e-15 -4.55665e-14 0
lhumerus -50.5589 -6.85034 84.7271
lradius 52.3139 0 0
lwrist 13.5631 0 0
lhand -30.0185 -5.66734 0
lfingers 7.12502 0 0
lthumb -3.33536 24.2863 0
rclavicle -5.37009e-15 -4.55665e-14 0
rhumerus 8.56866 49.424 -83.2984
rradius 93.4501 0 0
rwrist 3.78242 0 0
rhand -16.3576 -16.8067 0
rfingers 7.12502 0 0
rthumb 9.85516 -766.556 0
753
root 3.82452 16.1102 15.5514 -163.537 6.09438 188.565
lfemur -39.8138 12.5785 -21.0728
ltibia 56.8438 0 0
lfoot -33.0682 9.48075 0
ltoes 8.61241 0 0
rfemur -26.4213 -32.7029 19.2617
rtibia 95.3938 0 0
rfoot 14.4858 -2.60757 0
rtoes 21.9851 0 0
lowerback 3.8794 5.80824 -3.69709
upperback -0.540694 7.56122 -2.64664
thorax -2.83782 3.82871 -1.15903
lowerneck -5.72196 -8.90705 -1.97664
upperneck -2.22004 -11.9667 6.8518
head 0.835629 -6.00238 2.13927
lclavicle -1.38025e-14 -4.61507e-14 0
lhumerus -50.2406 -7.84475 86.15
lradius 54.0879 0 0
lwrist 13.391 0 0
lhand -29.9767 -6.2096 0
lfingers 7.12502 0 0
lthumb -3.29497 23.7447 0
rclavicle -1.38025e-14 -4.61507e-14 0
rhumerus 4.26616 50.5977 -86.9045
rradius 92.1102 0 0
rwrist 4.48838 0 0
rhand -16.4455 -16.7775 0
rfingers 7.12502 0 0
rthumb 9.77029 -766.53 0
754
root 3.74587 16.0402 15.7228 -163.634 9.29162 188.564
lfemur -40.7097 14.574 -22.027
ltibia 58.0512 0 0
lfoot -33.309 10.0242 0
ltoes 9.61542 0 0
rfemur -25.7979 -32.5674 20.1976
rtibia 93.243 0 0
rfoot 14.6116 -3.93221 0
rtoes 23.4736 0 0
lowerback 3.96535 5.70941 -3.8493
upperback -0.463171 7.43652 -2.93324
thorax -2.78501 3.77517 -1.36398
lowerneck -5.58363 -8.9404 -2.00734
upperneck -2.11243 -11.9807 6.83904
head 0.848359 -5.99035 2.14382
lclavicle -2.39666e-14 -3.40775e-14 0
lhumerus -50.0277 -8.80654 87.4607
lradius 55.9545 0 0
lwrist 13.1781 0 0
lhand -29.9085 -6.76124 0
lfingers 7.12502 0 0
lthumb -3.22908 23.194 0
rclavicle -2.39666e-14 -3.40775e-14 0
rhumerus -0.0835155 51.6549 -90.4777
rradius 90.7218 0 0
rwrist 5.09019 0 0
rhand -16.6399 -16.8668 0
rfingers 7.12502 0 0
rthumb 9.5828 -766.628 0
